<?xml version="1.0" encoding="UTF-8" standalone="no"?>
<svg
   xmlns:dc="http://purl.org/dc/elements/1.1/"
   xmlns:cc="http://creativecommons.org/ns#"
   xmlns:rdf="http://www.w3.org/1999/02/22-rdf-syntax-ns#"
   xmlns:svg="http://www.w3.org/2000/svg"
   xmlns="http://www.w3.org/2000/svg"
   xmlns:sodipodi="http://sodipodi.sourceforge.net/DTD/sodipodi-0.dtd"
   xmlns:inkscape="http://www.inkscape.org/namespaces/inkscape"
   width="425pt"
   height="425pt"
   viewBox="0 0 425 425"
   version="1.1"
   id="svg2"
   inkscape:version="0.91 r13725"
   sodipodi:docname="Moose.svg">
  <metadata
     id="metadata18">
    <rdf:RDF>
      <cc:Work
         rdf:about="">
        <dc:format>image/svg+xml</dc:format>
        <dc:type
           rdf:resource="http://purl.org/dc/dcmitype/StillImage" />
        <dc:title />
      </cc:Work>
    </rdf:RDF>
  </metadata>
  <defs
     id="defs16" />
  <sodipodi:namedview
     pagecolor="#ffffff"
     bordercolor="#666666"
     borderopacity="1"
     objecttolerance="10"
     gridtolerance="10"
     guidetolerance="10"
     inkscape:pageopacity="0"
     inkscape:pageshadow="2"
     inkscape:window-width="1920"
     inkscape:window-height="1017"
     id="namedview14"
     showgrid="false"
     inkscape:zoom="1.7769412"
     inkscape:cx="151.34909"
     inkscape:cy="272.59719"
     inkscape:window-x="-8"
     inkscape:window-y="-8"
     inkscape:window-maximized="1"
     inkscape:current-layer="svg2" />
  <path
     d="M 372.13672 58.962891 C 371.52422 59.425391 370.31172 60.324609 369.69922 60.787109 C 364.71172 68.662109 360.87578 77.213281 356.48828 85.425781 C 353.96328 89.325781 348.86172 89.911719 344.76172 91.136719 C 342.86172 87.624219 341.83828 83.761719 340.36328 80.074219 C 339.20078 80.299219 336.9 80.7625 335.75 81 C 333.55 77.4625 331.97422 73.588281 329.69922 70.113281 C 328.57422 72.525781 327.98789 75.137109 327.40039 77.724609 C 321.50039 77.587109 320.62461 70.711719 317.03711 67.324219 C 315.31211 72.199219 318.51211 77.161719 316.66211 82.011719 C 313.49961 79.011719 311.5625 75.062109 308.8125 71.724609 C 308.35 72.237109 307.4125 73.25 306.9375 73.75 C 307.225 76.4625 307.48828 79.174219 307.73828 81.886719 C 305.46328 79.649219 303.7625 76.938281 302 74.300781 C 300.65 77.163281 299.56172 80.6375 301.44922 83.5625 C 306.51172 91.9 313.35 99.424607 322.25 103.72461 C 329.975 107.41211 335.75 113.90078 342.875 118.48828 C 348.6625 122.32578 354.60039 126.06328 361.08789 128.61328 C 368.28789 131.27578 373.55078 137.28828 378.05078 143.23828 C 371.01328 141.47578 364.68828 136.43711 357.17578 136.97461 C 355.56328 138.36211 355.63789 140.64922 356.40039 142.44922 C 358.38789 147.76172 361.08828 152.77422 363.11328 158.07422 C 357.21328 163.34922 350.15 167.15039 343.0625 170.58789 C 337.5125 173.26289 331.2875 174.03828 325.1875 173.48828 C 316.275 172.67578 307.36328 174.49961 299.11328 177.78711 C 288.65078 182.61211 280.62461 191.61328 275.41211 201.73828 C 272.21211 208.27578 265 210.93672 259 214.19922 C 247.4 220.46172 233.97461 221.28711 221.16211 223.03711 C 207.39961 223.23711 193.07539 221.05039 179.83789 226.08789 C 166.01289 231.03789 154.23711 240.47539 144.91211 251.65039 C 140.57461 256.93789 140.62578 264.03828 138.73828 270.30078 C 136.83828 275.83828 135.26289 281.54922 134.65039 287.38672 C 135.01289 295.88672 136.36328 304.32422 137.86328 312.69922 C 138.75078 318.36172 139.0125 324.50078 136.4375 329.80078 C 132.375 339.02578 124.6375 346.1125 115.9375 350.9375 C 111.7125 353.6125 106.49961 355.02422 103.28711 359.07422 C 100.91211 364.93672 100.92539 371.40078 99.712891 377.55078 C 97.862891 389.48828 94.925781 401.23672 91.550781 412.82422 C 89.838281 418.96172 86.55 424.68672 86.0625 431.13672 C 85.55 435.38672 91.525781 435.38789 92.488281 438.96289 C 90.675781 442.46289 89.200391 446.10078 89.025391 450.11328 C 76.775391 453.05078 63.175 453.57539 52.8125 461.52539 C 49.3375 463.95039 45.963281 466.79961 44.238281 470.78711 C 48.663281 471.22461 53.099609 471.12422 57.537109 471.07422 C 118.76211 470.08672 179.98789 469.17539 241.21289 469.21289 C 263.27539 468.80039 285.34922 469.61328 307.38672 468.55078 C 344.17422 468.22578 380.96328 467.97422 417.73828 467.63672 C 426.35078 466.62422 435.12539 468.23711 443.65039 466.47461 C 436.95039 459.09961 426.06211 457.92578 419.16211 450.80078 C 414.61211 446.95078 410.51328 442.5125 405.48828 439.25 C 399.12578 435.3625 397.27422 426.40039 389.63672 424.21289 C 385.23672 423.17539 383.53711 417.2125 378.66211 417.6875 C 376.18711 417.625 373.71328 417.6625 371.23828 417.6875 C 366.77578 417.7875 362.32578 417.85078 357.86328 417.92578 C 353.43828 412.53828 347.07578 408.78789 343.98828 402.33789 C 337.71328 391.52539 338.4625 378.32578 341.4375 366.61328 C 343.3875 359.06328 342.6125 351.23828 343.125 343.55078 C 343.5 337.72578 346.10039 332.41328 347.96289 326.98828 C 350.85039 317.41328 353.87578 307.64961 352.92578 297.53711 C 360.26328 295.31211 367.97578 292.66211 373.23828 286.78711 C 377.13828 281.12461 376.86289 273.92578 377.15039 267.36328 C 376.85039 261.25078 382.33672 257.38828 385.19922 252.61328 C 390.12422 244.80078 394.54961 236.66211 398.78711 228.47461 C 399.38711 228.29961 400.57578 227.95039 401.17578 227.77539 C 405.27578 231.01289 404.9 236.47539 405.625 241.08789 C 406 243.96289 410.52422 243.90078 411.44922 241.30078 C 413.29922 236.90078 413.16328 231.53672 416.61328 227.88672 C 420.13828 224.19922 424.10078 220.41289 425.05078 215.15039 C 426.71328 208.01289 425.07461 198.59961 432.34961 194.16211 C 435.34961 196.36211 437.91172 200.87461 442.26172 199.53711 C 447.67422 197.24961 452.3875 193.25039 456 188.65039 C 460.9375 182.36289 456.15078 174.36328 455.98828 167.36328 C 461.78828 165.08828 468.125 164.1875 473.5 160.875 C 478.075 158.0375 483.73828 156.5 486.80078 151.75 C 484.30078 152.225 481.86211 152.88828 479.41211 153.48828 C 481.04961 149.83828 483.84922 146.73672 484.88672 142.82422 C 483.72422 140.66172 481.975 143.50039 480.8125 144.27539 C 475.5 150.05039 470.61289 157.70039 462.08789 158.65039 C 463.56289 154.20039 465.38828 149.66289 468.73828 146.27539 C 473.22578 141.71289 476.46172 136.12539 479.32422 130.46289 C 480.97422 127.05039 482.66328 123.33711 481.55078 119.47461 C 478.01328 123.88711 476.2 129.38828 472.6875 133.80078 C 471.7125 135.25078 470.025 135.76289 468.4375 136.21289 C 469.2625 130.35039 471.61211 124.83711 472.34961 118.97461 C 469.06211 122.61211 467.7375 127.43711 465.5625 131.72461 C 463.075 136.92461 459.81328 141.82539 455.36328 145.52539 C 454.85078 145.53789 453.83672 145.57461 453.32422 145.59961 C 452.67422 143.78711 452.02539 141.97578 451.33789 140.17578 C 449.43789 143.60078 449.46328 149.06172 445.05078 150.32422 C 442.57578 151.12422 440.24961 148.72461 440.84961 146.28711 C 441.87461 141.97461 444.8375 138.475 447.75 135.25 C 454.3875 128.0875 460.61328 120.43789 465.42578 111.90039 C 466.68828 110.13789 466.51289 107.93672 466.58789 105.88672 C 458.93789 111.99922 455.22578 122.37539 446.23828 126.83789 C 445.76328 126.38789 444.81289 125.50078 444.33789 125.05078 C 444.72539 120.61328 447.65078 116.64922 446.92578 112.07422 C 442.76328 116.03672 439.95039 121.88828 433.90039 123.30078 C 434.93789 116.86328 437.0875 110.65078 438 104.17578 C 437.4375 104.18828 436.32539 104.21211 435.77539 104.22461 C 434.02539 108.53711 432.41172 113.14961 428.51172 116.03711 C 424.79922 110.92461 428.575 103.98789 424.875 98.712891 C 421.2125 104.83789 424.84922 114.72422 417.32422 118.38672 C 413.16172 114.97422 414.40039 108.825 410.96289 104.9375 C 408.46289 106.5125 409.15078 109.95 408.17578 112.375 C 407.70078 116.15 402.98672 118.125 399.76172 116.5625 C 397.21172 114.65 396.55039 111.27422 394.83789 108.69922 C 392.68789 109.81172 391.45039 112.02578 389.77539 113.67578 C 387.06289 113.28828 382.42461 111.03828 384.91211 107.80078 C 390.13711 97.763283 393.3 86.850781 396.0625 75.925781 C 396.875 73.075781 396.96172 70.099609 396.82422 67.162109 C 396.26172 66.999609 395.13672 66.699609 394.57422 66.537109 C 389.56172 82.162109 382.23828 96.987107 373.61328 110.91211 C 371.58828 110.26211 369.58711 109.53711 367.59961 108.78711 C 371.96211 94.274607 381.01328 81.525391 384.67578 66.775391 C 382.46328 68.012891 380.525 69.699609 379.25 71.912109 C 375.125 78.549609 370.91289 85.149609 367.08789 91.974609 C 365.18789 95.212109 363.43672 98.862893 359.88672 100.58789 C 358.57422 92.675393 363.31328 85.6125 365.98828 78.5 C 368.35078 72.1125 372.43672 66.012891 372.13672 58.962891 z M 317.64648 304.375 C 318.05655 304.35807 318.46875 304.35781 318.88672 304.375 C 319.48672 312.9125 318.12578 321.47539 318.86328 330.02539 C 319.47578 337.90039 319.45078 345.825 318.05078 353.625 C 315.50078 368.1125 315.95078 383.17422 311.05078 397.19922 C 309.21328 403.47422 305.88828 409.6625 306.67578 416.375 C 307.68828 416.475 309.69922 416.67422 310.69922 416.76172 C 310.97422 419.54922 310.78789 422.3625 310.33789 425.125 C 300.36289 427.8125 290.17578 429.73789 279.98828 431.46289 C 275.50078 432.50039 271.48672 430.17422 267.51172 428.51172 C 262.76172 426.39922 257.48789 427.37539 252.46289 427.27539 C 243.08789 427.71289 232.59922 429.1875 224.51172 423.25 C 214.41172 414.5 204.36328 405.36328 197.30078 393.86328 C 193.97578 388.03828 187.57461 382.73828 189.34961 375.30078 C 193.33711 363.97578 199.41289 353.525 205.21289 343.0625 C 207.40039 335.9125 207.93672 328.24961 211.19922 321.41211 C 222.08672 323.54961 232.57578 328.53828 243.86328 328.11328 C 263.85078 326.41328 281.7 316.68789 300.375 310.27539 C 306.1875 308.5293 311.49547 304.62901 317.64648 304.375 z M 175.8125 331.8125 C 179.0125 347.025 171.41172 361.63828 164.82422 374.86328 C 162.59922 378.73828 165.275 382.94961 168.25 385.47461 C 179.7375 395.64961 190.78711 406.28789 201.28711 417.46289 C 204.66211 421.93789 209.6125 425.52578 211.25 431.11328 C 204.4 435.81328 196.94961 440.51289 188.47461 441.27539 C 178.46211 441.96289 169.43789 446.88711 159.58789 448.41211 C 156.47539 449.17461 153.12461 449.93711 150.09961 448.41211 C 140.36211 444.83711 129.61289 445.45 119.83789 448.5 C 116.07539 449.575 113.5125 446.01172 111.875 443.19922 C 108.55 436.59922 104.22539 430.16289 103.58789 422.58789 C 102.28789 413.63789 105.35 404.92461 107.875 396.47461 C 110.725 389.38711 113.25039 381.79922 118.58789 376.13672 C 125.38789 370.31172 133.82578 366.92461 141.67578 362.78711 C 151.33828 357.47461 158.29922 348.71172 165.94922 341.01172 C 169.38672 338.09922 172.4625 334.8125 175.8125 331.8125 z M 328.71289 365.82422 C 329.15039 367.98672 329.50078 370.17422 329.55078 372.38672 C 329.73828 386.18672 330.02461 399.98711 329.66211 413.78711 C 326.66211 411.67461 323.20039 409.275 322.90039 405.25 C 319.82539 393.75 323.02461 381.98672 326.34961 370.94922 C 326.87461 369.13672 327.80039 367.47422 328.71289 365.82422 z "
     transform="scale(0.8,0.8)"
     id="path6"
     style="fill:#ffffff;fill-opacity:1"
     inkscape:export-xdpi="101.75711"
     inkscape:export-ydpi="101.75711"
     inkscape:export-filename="C:\Users\tlariviere\Desktop\WoodenMoose\SplashScreen.scale-200.png" />
</svg>
